<svg xmlns="http://www.w3.org/2000/svg" viewBox="0 0 1200 720" role="img" aria-labelledby="title desc"><title id="title">SID hardware diagnostics</title><desc id="desc">SID die, NMOS logic and physical package diagnostic panels.</desc><rect width="1200" height="720" fill="#03070c"/><g stroke="#1b5268" fill="#071523"><rect x="32" y="32" width="352" height="656" rx="14"/><rect x="424" y="32" width="352" height="656" rx="14"/><rect x="816" y="32" width="352" height="656" rx="14"/></g><g fill="#65e8ff" font-family="monospace" font-size="20"><text x="58" y="78">SILICON_DIE</text><text x="450" y="78">NMOS_TRANS_LOGIC</text><text x="842" y="78">PHYS_PACKAGE_SIM</text></g><g fill="none" stroke="#39d9ed" stroke-width="3"><path d="M90 180h240v240H90zM120 220h180M120 280h180M120 340h180M180 180v240M240 180v240"/><path d="M480 200c100-80 200 80 260 0M480 290c100 80 200-80 260 0M480 380c100-80 200 80 260 0"/><path d="M875 255c0-80 230-80 230 0v220c0 80-230 80-230 0zM920 210v310M1060 210v310"/></g><g font-family="monospace" font-size="14" fill="#9bbac5"><text x="75" y="485">GATE_ARRAY_MAP</text><text x="75" y="515">OSC_CORE · FILTER · IO</text><text x="465" y="485">JOULE_HEAT_INDEX 25.0 °C</text><text x="465" y="515">WEBGL FALLBACK AVAILABLE</text><text x="855" y="485">DIE_SPECTRAL_TELEMETRY</text><text x="855" y="515">HDR_BLOOM · DIE_JITTER · HAZE</text></g></svg>
