<svg xmlns="http://www.w3.org/2000/svg" viewBox="0 0 1200 720" role="img" aria-labelledby="title desc">
  <title id="title">SID OS workstation overview</title><desc id="desc">CRT-style workstation with transport bar, visualizer, diagnostics, tracker and virtual filesystem panels.</desc>
  <rect width="1200" height="720" fill="#03070d"/><rect x="18" y="18" width="1164" height="52" rx="8" fill="#0b1522" stroke="#16465c"/>
  <text x="38" y="51" fill="#34d9ff" font-family="monospace" font-size="22" font-weight="700">SID OS // METRALLY</text><text x="770" y="51" fill="#7894a4" font-family="monospace" font-size="14">PAL_985K   BUS_NATIVE   READY</text>
  <g font-family="monospace" font-size="14" fill="#b6d2dc"><rect x="18" y="88" width="1164" height="40" rx="6" fill="#09111c" stroke="#153a4d"/><text x="36" y="114" fill="#5de5ff">LOAD</text><text x="110" y="114">VIZ STANDARD</text><text x="260" y="114">PLAY</text><text x="335" y="114">WAV</text><text x="410" y="114">SPD 1.00x</text><text x="920" y="114">PAL</text><text x="980" y="114">VOL 70%</text><text x="1080" y="114">CFG</text></g>
  <g stroke="#16465c" fill="#07121e"><rect x="18" y="148" width="690" height="250" rx="10"/><rect x="728" y="148" width="454" height="250" rx="10"/><rect x="18" y="418" width="390" height="260" rx="10"/><rect x="428" y="418" width="754" height="260" rx="10"/></g>
  <text x="40" y="181" fill="#34d9ff" font-family="monospace" font-size="16">ACC_CORE_VIZ</text><path d="M38 305 C110 205 170 350 240 260 S370 210 430 300 S560 340 690 220" fill="none" stroke="#38e0ff" stroke-width="4"/><path d="M38 330 H690" stroke="#19536a"/><text x="750" y="181" fill="#34d9ff" font-family="monospace" font-size="16">SYS_INTEGRITY_AUDIT</text><g fill="#0d2734" stroke="#20627a"><rect x="750" y="205" width="125" height="62" rx="7"/><rect x="890" y="205" width="125" height="62" rx="7"/><rect x="1030" y="205" width="125" height="62" rx="7"/></g><text x="770" y="240" fill="#8eeeff" font-family="monospace" font-size="13">V1_FREQ 00</text><text x="910" y="240" fill="#8eeeff" font-family="monospace" font-size="13">V2_FREQ 00</text><text x="1050" y="240" fill="#8eeeff" font-family="monospace" font-size="13">V3_FREQ 00</text>
  <text x="40" y="452" fill="#f0bd4c" font-family="monospace" font-size="16">VIRT_FS / SD2IEC_SYS</text><text x="40" y="492" fill="#7f9ca8" font-family="monospace" font-size="14">DROP .JSONL TRACE</text><text x="450" y="452" fill="#ff75cf" font-family="monospace" font-size="16">PATTERN_KERNEL</text><g fill="#0b1b27" stroke="#18465c"><rect x="450" y="475" width="62" height="150"/><rect x="522" y="475" width="62" height="150"/><rect x="594" y="475" width="62" height="150"/><rect x="666" y="475" width="62" height="150"/><rect x="738" y="475" width="62" height="150"/><rect x="810" y="475" width="62" height="150"/></g><text x="900" y="520" fill="#9ab6c2" font-family="monospace" font-size="14">TRACKER EDITING</text><text x="900" y="550" fill="#587986" font-family="monospace" font-size="13">notes · commands · loops</text><text x="900" y="580" fill="#587986" font-family="monospace" font-size="13">MIDI · SWM · JSON export</text>
</svg>
